<svg width="325" height="254" viewBox="0 0 325 254" fill="none" xmlns="http://www.w3.org/2000/svg">
<g clip-path="url(#clip0_1109_16665)">
<path d="M237.01 39.7592L233.69 36.4492L230.54 39.6092L227.38 36.4492L224.07 39.7592L227.23 42.9192L224.07 46.0792L227.38 49.3892L230.54 46.2292L233.69 49.3892L237.01 46.0792L233.85 42.9192L237.01 39.7592Z" fill="#8882BF"/>
<path d="M34.6998 158.97L31.3798 155.66L28.2298 158.82L25.0698 155.66L21.7598 158.97L24.9198 162.13L21.7598 165.29L25.0698 168.6L28.2298 165.44L31.3798 168.6L34.6998 165.29L31.5398 162.13L34.6998 158.97Z" fill="#8882BF"/>
<path d="M94.9105 17.8393L91.6005 14.5293L88.4505 17.6893L85.2905 14.5293L81.9805 17.8393L85.1305 20.9993L81.9805 24.1593L85.2905 27.4693L88.4505 24.3093L91.6005 27.4693L94.9105 24.1593L91.7605 20.9993L94.9105 17.8393Z" fill="#8882BF"/>
<path d="M303.01 183.259L299.7 179.939L296.54 183.099L293.39 179.939L290.07 183.259L293.23 186.409L290.07 189.569L293.39 192.879L296.54 189.719L299.7 192.879L303.01 189.569L299.86 186.409L303.01 183.259Z" fill="#8882BF"/>
<path d="M34.7011 54.2206C32.0311 54.2206 29.8711 52.0505 29.8711 49.3905C29.8711 46.7205 32.0411 44.5605 34.7011 44.5605C37.3611 44.5605 39.5311 46.7305 39.5311 49.3905C39.5311 52.0605 37.3611 54.2206 34.7011 54.2206ZM34.7011 46.5605C33.1411 46.5605 31.8711 47.8305 31.8711 49.3905C31.8711 50.9505 33.1411 52.2206 34.7011 52.2206C36.2611 52.2206 37.5311 50.9505 37.5311 49.3905C37.5311 47.8305 36.2611 46.5605 34.7011 46.5605Z" fill="#8882BF"/>
<path d="M175.111 10.3299C172.441 10.3299 170.281 8.15992 170.281 5.49992C170.281 2.83992 172.451 0.669922 175.111 0.669922C177.771 0.669922 179.941 2.83992 179.941 5.49992C179.941 8.15992 177.771 10.3299 175.111 10.3299ZM175.111 2.66992C173.551 2.66992 172.281 3.93992 172.281 5.49992C172.281 7.05992 173.551 8.32993 175.111 8.32993C176.671 8.32993 177.941 7.05992 177.941 5.49992C177.941 3.93992 176.671 2.66992 175.111 2.66992Z" fill="#8882BF"/>
<path d="M310.621 78.0506C307.951 78.0506 305.791 75.8806 305.791 73.2206C305.791 70.5506 307.961 68.3906 310.621 68.3906C313.281 68.3906 315.451 70.5606 315.451 73.2206C315.461 75.8806 313.291 78.0506 310.621 78.0506ZM310.621 70.3806C309.061 70.3806 307.791 71.6506 307.791 73.2106C307.791 74.7706 309.061 76.0406 310.621 76.0406C312.181 76.0406 313.451 74.7706 313.451 73.2106C313.451 71.6506 312.191 70.3806 310.621 70.3806Z" fill="#8882BF"/>
<path d="M248.98 157.82C246.31 157.82 244.15 155.65 244.15 152.99C244.15 150.33 246.32 148.16 248.98 148.16C251.64 148.16 253.81 150.33 253.81 152.99C253.81 155.65 251.64 157.82 248.98 157.82ZM248.98 150.15C247.42 150.15 246.15 151.42 246.15 152.98C246.15 154.54 247.42 155.81 248.98 155.81C250.54 155.81 251.81 154.54 251.81 152.98C251.81 151.42 250.54 150.15 248.98 150.15Z" fill="#8882BF"/>
<path d="M81.9804 218.961C79.3104 218.961 77.1504 216.791 77.1504 214.131C77.1504 211.461 79.3204 209.301 81.9804 209.301C84.6504 209.301 86.8104 211.471 86.8104 214.131C86.8104 216.791 84.6404 218.961 81.9804 218.961ZM81.9804 211.291C80.4204 211.291 79.1504 212.561 79.1504 214.121C79.1504 215.681 80.4204 216.951 81.9804 216.951C83.5404 216.951 84.8104 215.681 84.8104 214.121C84.8104 212.561 83.5404 211.291 81.9804 211.291Z" fill="#8882BF"/>
<path d="M90.8806 61.3296C95.8457 61.3296 99.8706 57.3046 99.8706 52.3396C99.8706 47.3746 95.8457 43.3496 90.8806 43.3496C85.9156 43.3496 81.8906 47.3746 81.8906 52.3396C81.8906 57.3046 85.9156 61.3296 90.8806 61.3296Z" fill="#8882BF"/>
<path d="M95.3501 160.341C97.8464 160.341 99.8701 158.317 99.8701 155.821C99.8701 153.324 97.8464 151.301 95.3501 151.301C92.8538 151.301 90.8301 153.324 90.8301 155.821C90.8301 158.317 92.8538 160.341 95.3501 160.341Z" fill="#8882BF"/>
<path d="M324.501 141.25C324.501 143.75 322.481 145.77 319.981 145.77C317.481 145.77 315.461 143.75 315.461 141.25C315.461 138.75 317.481 136.73 319.981 136.73C322.481 136.73 324.501 138.75 324.501 141.25Z" fill="#8882BF"/>
<path d="M9.27048 83.3501C9.27048 85.8501 7.25047 87.8701 4.75047 87.8701C2.25047 87.8701 0.230469 85.8501 0.230469 83.3501C0.230469 80.8501 2.25047 78.8301 4.75047 78.8301C7.25047 78.8301 9.27048 80.8501 9.27048 83.3501Z" fill="#8882BF"/>
<path d="M235.06 83.3501C235.06 85.8501 233.04 87.8701 230.54 87.8701C228.04 87.8701 226.02 85.8501 226.02 83.3501C226.02 80.8501 228.04 78.8301 230.54 78.8301C233.03 78.8301 235.06 80.8501 235.06 83.3501Z" fill="#8882BF"/>
<path d="M221.12 216.09C224.876 216.09 227.92 213.046 227.92 209.29C227.92 205.535 224.876 202.49 221.12 202.49C217.365 202.49 214.32 205.535 214.32 209.29C214.32 213.046 217.365 216.09 221.12 216.09Z" fill="#8882BF"/>
<path d="M50.5812 153.361V132.291H9.28125V115.461L56.6613 54.6406H69.5312V115.321H81.9813V132.301H69.5312V153.371H50.5812V153.361ZM28.2312 115.321H52.7013V83.3506L28.2312 115.321Z" fill="#2C11C1"/>
<path d="M271.322 153.361V132.291H230.021V115.461L277.401 54.6406H290.271V115.321H302.721V132.301H290.271V153.371H271.322V153.361ZM248.982 115.321H273.452V83.3506L248.982 115.321Z" fill="#2C11C1"/>
<path opacity="0.15" d="M230.58 160.03L230.95 159.69C231.51 159.18 231.55 158.31 231.04 157.75L223.46 149.46C231.27 139.63 236.17 127.33 236.76 113.83C238.27 79.7804 211.89 50.9604 177.84 49.4504C143.78 47.9404 114.96 74.3204 113.45 108.37C111.94 142.43 138.33 171.25 172.38 172.76C185.88 173.35 198.56 169.57 209.04 162.65L216.62 170.94C217.13 171.5 218 171.54 218.56 171.03L218.93 170.69L275.15 232.11H296.54L230.58 160.03Z" fill="#212121"/>
<path d="M303.35 239.58L211.76 147.99L199.98 159.77L291.57 251.35C295.01 254.79 300.66 254.56 303.8 250.84C306.62 247.54 306.41 242.64 303.35 239.58Z" fill="#424242"/>
<path d="M191.5 154.08L202.55 165.13C203.11 165.69 204.03 165.69 204.59 165.13L217.13 152.59C217.69 152.03 217.69 151.11 217.13 150.55L206.08 139.5L191.5 154.08Z" fill="#2C11C1"/>
<path d="M207.832 141.25L209.242 142.66L197.392 159.97L192.182 154.76L207.832 141.25Z" fill="#8882BF"/>
<path opacity="0.64" d="M204.99 164.76L216.76 152.99L217.56 153.79L208.36 168.13L204.99 164.76Z" fill="#212121"/>
<path d="M156.001 38.8809C120.041 38.8809 90.8809 68.0309 90.8809 104.001C90.8809 139.971 120.031 169.121 156.001 169.121C191.971 169.121 221.121 139.971 221.121 104.001C221.121 68.0309 191.961 38.8809 156.001 38.8809ZM156.001 155.661C127.471 155.661 104.341 132.531 104.341 104.001C104.341 75.4709 127.471 52.3409 156.001 52.3409C184.531 52.3409 207.661 75.4709 207.661 104.001C207.661 132.531 184.531 155.661 156.001 155.661Z" fill="#2C11C1"/>
<path opacity="0.8" d="M156.002 155.662C184.533 155.662 207.662 132.533 207.662 104.002C207.662 75.4708 184.533 52.3418 156.002 52.3418C127.471 52.3418 104.342 75.4708 104.342 104.002C104.342 132.533 127.471 155.662 156.002 155.662Z" fill="#8882BF"/>
<path d="M121.71 69.71C114.24 77.18 109.75 84.81 111.68 86.74C113.61 88.67 121.24 84.18 128.71 76.71C136.18 69.24 140.67 61.61 138.74 59.68C136.81 57.75 129.18 62.24 121.71 69.71Z" fill="white"/>
</g>
<defs>
<clipPath id="clip0_1109_16665">
<rect width="324.27" height="253.117" fill="white" transform="translate(0.230469 0.669922)"/>
</clipPath>
</defs>
</svg>
